<svg xmlns="http://www.w3.org/2000/svg" style="display: none;"><symbol id="test" viewBox="0 0 512 512"><title>test</title><g><path d="m442 407c0 1.094.12 2.186.357 3.254l20 90c1.525 6.863 7.613 11.746 14.643 11.746s13.118-4.883 14.643-11.746l20-90c.238-1.068.357-2.16.357-3.254 0-8.284-6.716-15-15-15h-40c-8.284 0-15 6.716-15 15z" fill="#ffe4c1"/><g><g><path d="m491.643 500.254 20-90c.238-1.068.357-2.16.357-3.254 0-8.284-6.716-15-15-15h-20v120c7.03 0 13.118-4.883 14.643-11.746z" fill="#fdd1a3"/></g></g><path d="m512 77c0-8.284-6.716-15-15-15h-40c-8.284 0-15 6.716-15 15v60c0 8.284 6.716 15 15 15h40c8.284 0 15-6.716 15-15z" fill="#ff6c6c"/><path d="m512 137v-60c0-8.284-6.716-15-15-15h-20v90h20c8.284 0 15-6.716 15-15z" fill="#f30051"/><path d="m512 137h-70v45c0 8.284 6.716 15 15 15h40c8.284 0 15-6.716 15-15z" fill="#f9f1f1"/><path d="m512 182v-45h-35v60h20c8.284 0 15-6.716 15-15z" fill="#e2dff4"/><g><path d="m442 182h70v225h-70z" fill="#0052be"/></g><g><path d="m477 182h35v225h-35z" fill="#00337a"/></g></g><g><path d="m345 512h-300c-24.813 0-45-20.187-45-45v-392c0-24.813 20.187-45 45-45h15l135 30 135-30h15c24.813 0 45 20.187 45 45v392c0 24.813-20.187 45-45 45z" fill="#9d7552"/><g><path d="m345 30h-15l-135 30v452h150c24.813 0 45-20.187 45-45v-392c0-24.813-20.187-45-45-45z" fill="#865240"/></g><path d="m315 452h-240c-8.284 0-15-6.716-15-15v-407h270v407c0 8.284-6.716 15-15 15z" fill="#f9f1f1"/><g><path d="m195 30v422h120c8.284 0 15-6.716 15-15v-407z" fill="#e2dff4"/></g><g><path d="m182.962 276.991c-.043-.114-.088-.228-.134-.341-2.287-5.56-7.646-9.149-13.656-9.149-.005 0-.01 0-.016 0-6.017.006-11.375 3.609-13.653 9.178-.038.093-.075.188-.111.282l-37.55 98.591c-2.457 6.452.781 13.673 7.232 16.131 6.454 2.456 13.673-.781 16.131-7.232l6.286-16.504h43.075l6.215 16.468c1.889 5.006 6.646 8.09 11.697 8.09 1.466 0 2.958-.26 4.412-.809 6.459-2.438 9.719-9.649 7.281-16.108zm-25.949 65.954 12.115-31.809 12.004 31.809z" fill="#0052be"/><path d="m260 260.262h-7.262v-7.262c0-6.904-5.596-12.5-12.5-12.5s-12.5 5.596-12.5 12.5v7.262h-7.738c-6.904 0-12.5 5.596-12.5 12.5s5.596 12.5 12.5 12.5h7.738v7.738c0 6.904 5.596 12.5 12.5 12.5s12.5-5.596 12.5-12.5v-7.738h7.262c6.904 0 12.5-5.596 12.5-12.5s-5.596-12.5-12.5-12.5z" fill="#00337a"/><g fill="#0052be"><path d="m135 150h120c8.284 0 15-6.716 15-15s-6.716-15-15-15h-120c-8.284 0-15 6.716-15 15s6.716 15 15 15z"/><path d="m135 210h120c8.284 0 15-6.716 15-15s-6.716-15-15-15h-120c-8.284 0-15 6.716-15 15s6.716 15 15 15z"/></g></g><path d="m255 75h-120c-8.284 0-15-6.716-15-15v-15c0-24.813 20.187-45 45-45h60c24.813 0 45 20.187 45 45v15c0 8.284-6.716 15-15 15z" fill="#ffde46"/><g><g><g fill="#00337a"><path d="m196.781 384.414c1.889 5.006 6.646 8.09 11.697 8.09 1.466 0 2.958-.26 4.412-.809 6.459-2.438 9.719-9.649 7.281-16.108l-25.171-66.699v70.805z"/><path d="m255 150c8.284 0 15-6.716 15-15s-6.716-15-15-15h-60v30z"/><path d="m255 210c8.284 0 15-6.716 15-15s-6.716-15-15-15h-60v30z"/></g><path d="m270 60v-15c0-24.813-20.187-45-45-45h-30v75h60c8.284 0 15-6.716 15-15z" fill="#fdbf00"/></g></g></g></symbol><symbol id="certificate" viewBox="0 0 512 512"><title>certificate</title><g><g><g><path d="m471.377 73.772c18.293 0 33.123 14.83 33.123 33.123v331.382c0 18.293-14.83 33.123-33.123 33.123h-430.754c-18.293 0-33.123-14.83-33.123-33.124v-331.381c0-18.293 14.83-33.123 33.123-33.123z" fill="#ffdd40"/><path d="m429.82 106.895c3.9 0 7.274 2.722 8.086 6.536 2.784 13.072 13.71 24.133 26.957 26.936 3.807.806 6.514 4.19 6.514 8.082v248.273c0 3.892-2.707 7.276-6.514 8.082-13.247 2.803-24.173 13.864-26.957 26.936-.813 3.815-4.186 6.536-8.086 6.536h-347.64c-3.9 0-7.274-2.722-8.086-6.536-2.784-13.072-13.71-24.133-26.957-26.936-3.807-.806-6.514-4.19-6.514-8.082v-248.273c0-3.892 2.707-7.276 6.514-8.082 13.247-2.803 24.172-13.864 26.957-26.936.813-3.815 4.186-6.536 8.086-6.536z" fill="#ebf5fc"/><path d="m471.377 73.772h-23c18.293 0 33.123 14.83 33.123 33.123v331.382c0 18.293-14.83 33.123-33.123 33.123h23c18.293 0 33.123-14.83 33.123-33.123v-331.382c0-18.294-14.83-33.123-33.123-33.123z" fill="#ffb332"/><path d="m464.863 140.367c-13.247-2.803-24.173-13.864-26.957-26.936-.813-3.815-4.186-6.536-8.086-6.536h-23c3.9 0 7.274 2.722 8.087 6.536 2.784 13.072 13.71 24.133 26.957 26.936 3.807.806 6.514 4.19 6.514 8.082v248.273c0 3.892-2.707 7.276-6.514 8.082-13.247 2.803-24.173 13.864-26.957 26.936-.813 3.815-4.186 6.536-8.087 6.536h23c3.9 0 7.274-2.722 8.086-6.536 2.784-13.072 13.71-24.133 26.957-26.936 3.807-.806 6.514-4.19 6.514-8.082v-248.273c0-3.891-2.707-7.276-6.514-8.082z" fill="#d3dcfb"/></g><g><path d="m314.17 222.976h-116.493c-4.418 0-8-3.582-8-8v-17.123c0-4.418 3.582-8 8-8h116.493c4.418 0 8 3.582 8 8v17.123c0 4.418-3.582 8-8 8z" fill="#4fabf7"/><path d="m314.17 189.853h-23c4.418 0 8 3.582 8 8v17.123c0 4.418-3.582 8-8 8h23c4.418 0 8-3.582 8-8v-17.123c0-4.418-3.582-8-8-8z" fill="#1886ea"/></g><g><g><path d="m397.417 406.519 5.812 11.624c1.15 2.3 1.749 4.835 1.749 7.406v70.611c0 5.652-5.537 9.643-10.899 7.856l-22.223-7.408-13.944-12.728c-1.7-.567-3.537-.567-5.237 0l-13.943 12.728-22.223 7.408c-5.362 1.787-10.899-2.204-10.899-7.856v-70.611c0-2.571.599-5.107 1.749-7.406l5.811-11.621z" fill="#ff4155"/><path d="m403.229 418.143-5.812-11.624-23 .001 5.812 11.623c1.15 2.3 1.748 4.835 1.748 7.407v70.611c0 1.289-.3 2.485-.808 3.553l12.909 4.303c5.362 1.787 10.899-2.204 10.899-7.856v-70.611c0-2.572-.598-5.108-1.748-7.407z" fill="#e80054"/><path d="m371.854 406.519-33.123.001v90.088l13.943-4.648c1.7-.567 3.538-.567 5.237 0l13.943 4.648z" fill="#ebf5fc"/><ellipse cx="355.292" cy="355.393" fill="#ffdd40" rx="66.246" ry="66.246" transform="matrix(.707 -.707 .707 .707 -147.238 355.322)"/><g fill="#ffb332"><circle cx="355.293" cy="355.393" r="33.123"/><path d="m355.293 289.147c-3.925 0-7.763.361-11.5 1.015 31.102 5.447 54.746 32.569 54.746 65.231s-23.645 59.784-54.746 65.231c3.737.654 7.575 1.015 11.5 1.015 36.587 0 66.246-29.659 66.246-66.246s-29.66-66.246-66.246-66.246z"/></g></g></g></g><g><path d="m330.833 156.605h-149.666c-4.418 0-8-3.582-8-8v-115.466h165.667v115.466c-.001 4.418-3.582 8-8.001 8z" fill="#3c58a0"/><path d="m315.833 33.139v115.466c0 4.418-3.582 8-8 8h23c4.418 0 8-3.582 8-8v-115.466z" fill="#2a428c"/><path d="m413.667 40.638h-315.334c-4.418 0-8-3.582-8-8v-17.133c0-4.418 3.582-8 8-8h315.333c4.418 0 8 3.582 8 8v17.133c.001 4.419-3.581 8-7.999 8z" fill="#3c58a0"/><path d="m413.667 7.505h-23c4.418 0 8 3.582 8 8v17.133c0 4.418-3.582 8-8 8h23c4.418 0 8-3.582 8-8v-17.133c0-4.418-3.582-8-8-8z" fill="#2a428c"/><path d="m405.1 123.472c0-9.415-7.854-16.996-17.367-16.548-8.911.419-15.766 8.095-15.766 17.016v24.382c0 4.575 3.708 8.283 8.283 8.283h16.567c4.575 0 8.283-3.709 8.283-8.283z" fill="#ffdd40"/><path d="m387.732 106.924c-4.15.195-7.843 1.978-10.616 4.715 3.072 3.007 4.984 7.195 4.984 11.833v24.85c0 3.434-2.09 6.379-5.067 7.635.989.417 2.076.648 3.217.648h16.567c4.575 0 8.283-3.709 8.283-8.283v-24.85c0-9.415-7.854-16.996-17.368-16.548z" fill="#ffb332"/></g></g><g><path d="m471.377 66.272h-75.461v-18.086h17.623c8.547 0 15.5-6.953 15.5-15.5v-17.123c0-8.547-6.953-15.5-15.5-15.5h-59.571c-4.143 0-7.5 3.358-7.5 7.5s3.357 7.5 7.5 7.5h26.948v18.124h-282.608c-.276 0-.5-.224-.5-.5v-17.124c0-.276.224-.5.5-.5h225.025c4.143 0 7.5-3.358 7.5-7.5s-3.357-7.5-7.5-7.5h-225.025c-8.547 0-15.5 6.953-15.5 15.5v17.124c0 8.547 6.953 15.5 15.5 15.5h67.308v18.085h-124.993c-22.399 0-40.623 18.223-40.623 40.623v331.382c0 22.399 18.224 40.623 40.623 40.623h51.246c4.142 0 7.5-3.358 7.5-7.5s-3.358-7.5-7.5-7.5h-51.246c-14.128 0-25.623-11.495-25.623-25.623v-331.382c0-14.128 11.495-25.623 25.623-25.623h124.993v18.123h-83.436c-7.396 0-13.882 5.246-15.422 12.474-2.19 10.285-10.897 18.987-21.173 21.161-7.221 1.527-12.462 8.012-12.462 15.42v248.272c0 7.407 5.241 13.892 12.462 15.419 10.276 2.174 18.983 10.876 21.173 21.161 1.54 7.228 8.025 12.474 15.422 12.474h215.927v18.124h-176.238c-4.142 0-7.5 3.358-7.5 7.5s3.358 7.5 7.5 7.5h176.239v17.26c0 5.059 2.45 9.845 6.555 12.803 2.716 1.958 5.963 2.975 9.239 2.975 1.674 0 3.355-.266 4.978-.806l36.165-12.055c.163-.054.334-.055.495 0l36.167 12.055c4.798 1.6 10.113.79 14.217-2.168s6.555-7.744 6.555-12.803v-17.261h58.9c22.399 0 40.623-18.224 40.623-40.623v-331.382c-.002-22.4-18.226-40.623-40.625-40.623zm-75.461-51.209h17.623c.275 0 .5.224.5.5v17.124c0 .276-.225.5-.5.5h-17.623zm-15 51.209h-34.685v-18.086h34.685zm-1.562 57.69c0-5.025 3.864-9.295 8.613-9.519.149-.007.297-.01.445-.01 2.347 0 4.554.879 6.256 2.504 1.812 1.728 2.809 4.057 2.809 6.558v24.842c0 .431-.35.781-.781.781h-16.561c-.431 0-.78-.35-.78-.781v-24.375zm-33.123-24.567v-18.123h34.685v18.123zm-165.615 31.599h150.616v17.623c0 .276-.225.5-.5.5h-149.616c-.276 0-.5-.224-.5-.5zm150.615-82.808v67.808h-150.615v-67.808zm-249.051 382.591c-.361 0-.677-.252-.751-.599-3.44-16.15-16.597-29.296-32.739-32.711-.329-.07-.567-.383-.567-.745v-248.273c0-.362.238-.675.567-.745 16.143-3.416 29.299-16.561 32.739-32.711.074-.347.39-.599.751-.599h83.435v34.222c0 8.547 6.953 15.5 15.5 15.5h149.616c8.547 0 15.5-6.953 15.5-15.5v-34.222h20.017c-1.217 2.942-1.893 6.174-1.893 9.567v24.375c0 8.702 7.079 15.781 15.78 15.781h16.561c8.702 0 15.781-7.079 15.781-15.781v-24.842c0-3.14-.631-6.231-1.804-9.099h19.146c.361 0 .678.252.751.599 3.44 16.15 16.598 29.295 32.741 32.712.327.069.566.382.566.744v248.272c0 .362-.238.675-.567.745-16.142 3.415-29.3 16.561-32.74 32.711-.073.347-.39.599-.751.599h-17.342v-5.228c0-3.717-.879-7.438-2.541-10.76l-3.277-6.554c13.789-13.408 22.379-32.136 22.379-52.842 0-23.909-11.445-45.187-29.135-58.671h5.073c4.143 0 7.5-3.358 7.5-7.5s-3.357-7.5-7.5-7.5h-298.107c-4.142 0-7.5 3.358-7.5 7.5s3.358 7.5 7.5 7.5h203.812c-6.614 5.041-12.349 11.171-16.944 18.123h-137.183c-4.142 0-7.5 3.358-7.5 7.5s3.358 7.5 7.5 7.5h129.56c-2.951 7.964-4.568 16.57-4.568 25.548 0 20.706 8.59 39.434 22.379 52.842l-3.276 6.552c-1.663 3.324-2.542 7.045-2.542 10.762v5.228zm273.113-16.638c-32.394 0-58.747-26.354-58.747-58.746 0-31.399 24.762-57.122 55.784-58.671h5.926c31.021 1.549 55.783 27.272 55.783 58.671 0 32.393-26.354 58.746-58.746 58.746zm-41.158 82.762c-.095.031-.379.126-.703-.107-.324-.234-.324-.535-.324-.634v-70.611c0-1.399.331-2.8.957-4.052l1.887-3.774c4.755 3.012 9.875 5.493 15.28 7.365v66.115zm36.167-12.056-4.07 1.357v-57.639c2.972.366 5.992.577 9.062.577 3.069 0 6.089-.211 9.061-.577v57.64l-4.073-1.358c-3.217-1.072-6.761-1.072-9.98 0zm46.851 11.949c-.323.231-.608.139-.703.107l-17.096-5.699v-66.115c5.405-1.871 10.524-4.352 15.279-7.365l1.888 3.776c.625 1.25.956 2.651.956 4.05v70.611c.001.1.001.401-.324.635zm99.847-58.517c0 14.128-11.494 25.623-25.623 25.623h-58.9v-18.123h17.342c7.396 0 13.883-5.246 15.423-12.474 2.19-10.285 10.897-18.987 21.174-21.161 7.221-1.528 12.461-8.013 12.461-15.419v-248.274c0-7.407-5.241-13.893-12.461-15.419-10.276-2.175-18.983-10.877-21.174-21.162-1.54-7.228-8.026-12.474-15.423-12.474h-33.903v-18.122h75.461c14.129 0 25.623 11.495 25.623 25.623z"/><path d="m473.447 99.47h-4.141c-4.143 0-7.5 3.358-7.5 7.5s3.357 7.5 7.5 7.5h4.141c4.143 0 7.5-3.358 7.5-7.5s-3.357-7.5-7.5-7.5z"/><path d="m38.553 114.47h4.141c4.142 0 7.5-3.358 7.5-7.5s-3.358-7.5-7.5-7.5h-4.141c-4.142 0-7.5 3.358-7.5 7.5s3.358 7.5 7.5 7.5z"/><path d="m38.553 430.777c-4.142 0-7.5 3.358-7.5 7.5s3.358 7.5 7.5 7.5h4.141c4.142 0 7.5-3.358 7.5-7.5s-3.358-7.5-7.5-7.5z"/><path d="m473.448 430.777h-4.141c-4.143 0-7.5 3.358-7.5 7.5s3.357 7.5 7.5 7.5h4.141c4.143 0 7.5-3.358 7.5-7.5s-3.357-7.5-7.5-7.5z"/><path d="m355.293 314.77c-22.4 0-40.624 18.224-40.624 40.623s18.224 40.623 40.624 40.623c22.399 0 40.623-18.224 40.623-40.623s-18.224-40.623-40.623-40.623zm0 66.246c-14.129 0-25.624-11.495-25.624-25.623s11.495-25.623 25.624-25.623 25.623 11.495 25.623 25.623c0 14.129-11.494 25.623-25.623 25.623z"/><path d="m357.362 347.893h-4.14c-4.143 0-7.5 3.358-7.5 7.5s3.357 7.5 7.5 7.5h4.14c4.143 0 7.5-3.358 7.5-7.5s-3.357-7.5-7.5-7.5z"/><path d="m197.677 230.476h116.493c8.547 0 15.5-6.953 15.5-15.5v-17.123c0-8.547-6.953-15.5-15.5-15.5h-116.493c-8.547 0-15.5 6.953-15.5 15.5v17.123c0 8.547 6.953 15.5 15.5 15.5zm-.5-32.623c0-.276.224-.5.5-.5h116.493c.275 0 .5.224.5.5v17.123c0 .276-.225.5-.5.5h-116.493c-.276 0-.5-.224-.5-.5z"/><path d="m106.869 263.599h298.108c4.143 0 7.5-3.358 7.5-7.5s-3.357-7.5-7.5-7.5h-298.108c-4.142 0-7.5 3.358-7.5 7.5s3.358 7.5 7.5 7.5z"/><path d="m156.554 381.016h-49.685c-4.142 0-7.5 3.358-7.5 7.5s3.358 7.5 7.5 7.5h49.685c4.142 0 7.5-3.358 7.5-7.5s-3.358-7.5-7.5-7.5z"/></g></symbol><symbol id="laptop" viewBox="0 0 512 512"><title>laptop</title><g><path d="m10 387.756v47.259c0 16.892 13.694 30.586 30.586 30.586h430.828c16.892 0 30.586-13.694 30.586-30.586v-47.259z" fill="#8481e2"/><g><path d="m476.242 387.756h-440.484v-312.119c0-16.148 13.09-29.238 29.238-29.238h382.008c16.148 0 29.238 13.09 29.238 29.238z" fill="#e5ecec"/></g><g><g><path d="m369.93 436.68c-4.116 0-7.892-2.627-9.347-6.468-1.463-3.861-.351-8.323 2.753-11.049 3.188-2.798 7.915-3.262 11.591-1.146 3.66 2.106 5.642 6.474 4.803 10.613-.935 4.613-5.077 8.05-9.8 8.05z"/></g><g><path d="m324.94 436.679h-308.837c-5.522 0-10-4.478-10-10s4.478-10 10-10h308.837c5.522 0 10 4.478 10 10s-4.478 10-10 10z"/></g></g></g><g><g><path d="m304.098 290.228h34.695c14.734 0 26.679 11.944 26.679 26.679v70.85h-218.944v-70.853c0-14.733 11.943-26.676 26.676-26.676h35.149" fill="#9bc6ff"/><g><g><g><path d="m179.723 127.297-.004 35.033h-.937c-8.191 0-15.167 6.37-15.458 14.556-.305 8.594 6.571 15.658 15.096 15.658h2.67l1.316 6.038c0 43.209 51.937 61.554 58.322 62.468l-7.581 29.177h45.189l-7.581-29.179c6.382-.914 58.323-19.051 58.323-62.467l1.316-6.038h3.185c8.526 0 15.402-7.064 15.096-15.658-.291-8.186-7.267-14.556-15.458-14.556h-1.453l-.004-35.033" fill="#ffcbbe"/></g></g><g><g><g><path d="m219.382 196.242c-5.522 0-10-4.478-10-10v-12.528c0-5.522 4.478-10 10-10s10 4.478 10 10v12.528c0 5.523-4.478 10-10 10z"/></g></g><g><g><path d="m292.618 196.242c-5.522 0-10-4.478-10-10v-12.528c0-5.522 4.478-10 10-10s10 4.478 10 10v12.528c0 5.523-4.477 10-10 10z"/></g></g></g><g><path d="m256.018 238.302c-7.929 0-15.322-4.267-19.294-11.134-2.766-4.781-1.131-10.898 3.649-13.663 4.785-2.767 10.898-1.13 13.663 3.649.156.27.759 1.148 1.982 1.148 1.224 0 1.827-.879 1.983-1.148 2.766-4.781 8.884-6.416 13.663-3.647 4.78 2.766 6.414 8.883 3.647 13.663-3.972 6.866-11.366 11.132-19.293 11.132z"/></g><path d="m331.764 162.331s14.843-21.871 14.851-62.403c.005-27.939-18.233-53.551-18.272-53.529l-2.565 2.053c-17.933 14.35-24.706 17.368-63.822 6.643-35.758-14.713-49.071 16.422-75.115 15.525-32.998-1.137-7.121 91.711-7.121 91.711s10.869-33.741 18.421-33.741c0 0 60.415 2.233 71.123 1.565 12.775-.798 28.834-4.773 28.869-17.572z" fill="#ffcb7c"/></g></g><g><g><path d="m286.285 329.303 18.767-46.195-23.973-9.284-25.096 18.502z" fill="#e5ecec"/></g><g><g><path d="m225.715 329.303-18.767-46.195 23.973-9.284 25.096 18.502z" fill="#e5ecec"/></g><path d="m502 377.757h-15.758v-302.12c0-21.636-17.603-39.238-39.238-39.238h-382.008c-21.636 0-39.238 17.603-39.238 39.238v302.12h-15.758c-5.523 0-10 4.478-10 10v47.259c0 22.379 18.207 40.586 40.586 40.586h430.828c22.379 0 40.586-18.207 40.586-40.586v-47.259c0-5.523-4.478-10-10-10zm-35.758-302.12v302.12h-90.77v-60.85c0-20.225-16.454-36.679-36.679-36.679h-24.168c-.11-.367-.24-.73-.393-1.085-1.063-2.461-3.069-4.393-5.569-5.36l-20.973-8.122c6.34-2.845 13.636-6.799 20.522-11.834 19.122-13.979 29.707-31.85 30.776-51.861 4.788-1.043 9.161-3.474 12.656-7.094 4.774-4.946 7.269-11.46 7.025-18.341-.316-8.885-5.218-16.508-12.435-20.714 4.71-11.261 10.375-30.152 10.38-55.888.002-13.038-3.368-26.964-10.017-41.392-.337-.732-.675-1.445-1.01-2.14h101.415c10.61.001 19.24 8.631 19.24 19.24zm-263.132 224.591 13.341 32.839c1.328 3.269 4.279 5.596 7.768 6.124.5.075 1.001.112 1.498.112 2.97 0 5.818-1.324 7.733-3.662l22.55-27.519 22.551 27.519c1.915 2.338 4.764 3.662 7.733 3.662.497 0 .998-.037 1.498-.112 3.488-.528 6.44-2.855 7.768-6.124l13.341-32.839h29.903c9.196 0 16.679 7.482 16.679 16.679v60.85h-198.945v-60.854c0-9.195 7.48-16.676 16.676-16.676h29.906zm55.04-235.885c.378.155.766.288 1.16.397 36.482 10.001 48.956 8.859 66.277-3.566 4.762 8.94 11.03 23.593 11.027 38.753-.004 18.27-3.264 32.435-6.537 42.055l-23.661-34.999c-1.895-2.803-5.026-4.4-8.285-4.4-.97 0-1.951.142-2.915.436-4.198 1.279-7.072 5.148-7.084 9.538-.012 4.203-9.814 7.015-19.492 7.619-8.369.526-53.463-.962-70.131-1.578-.123-.005-.246-.007-.369-.007-6.428 0-11.27 4.624-15.287 11.117-.276-1.66-.543-3.349-.794-5.055-4.687-31.877.098-40.896 1.676-42.902.569-.725 1.052-1.188 2.761-1.136 13.282.447 23.638-5.453 32.771-10.667 12.286-7.016 21.99-12.555 38.883-5.605zm-84.832 112.899c.096-2.708 2.547-4.911 5.464-4.911.179 0 .357-.005.533-.014.069.003.136.011.205.012.067.001.134.002.201.002 4.332 0 8.184-2.795 9.517-6.934 3.486-10.824 8.611-22.502 11.604-26.704 13.336.479 59.205 2.057 69.045 1.441 14.191-.886 23.178-4.43 28.84-8.818l24.754 36.615c1.857 2.748 4.958 4.396 8.275 4.4h.009c.244 0 .486-.012.727-.029.24.017.482.029.727.029 2.917 0 5.368 2.203 5.464 4.91.067 1.898-.865 3.159-1.428 3.741-.563.583-1.789 1.561-3.675 1.561h-3.185c-4.702 0-8.77 3.276-9.771 7.87l-1.316 6.039c-.152.7-.229 1.414-.229 2.13 0 14.765-7.451 27.789-22.147 38.713-11.94 8.876-25.038 13.383-27.591 13.854-2.818.403-5.331 1.988-6.908 4.358-1.578 2.37-2.07 5.3-1.355 8.056l2.743 10.561-7.821 5.766-8.253-6.085 2.66-10.24c.716-2.755.271-5.678-1.307-8.048-1.577-2.369-4.042-3.947-6.86-4.351-6.21-1.151-49.834-17.847-49.834-52.584 0-.716-.077-1.429-.229-2.128l-1.316-6.039c-1.001-4.596-5.067-7.872-9.77-7.872h-2.67c-1.887 0-3.112-.979-3.675-1.561-.562-.582-1.495-1.842-1.428-3.74zm109.273 107.892 9.37 3.628-8.607 21.187-12.964-15.82zm-53.182 0 12.201 8.994-12.964 15.82-8.607-21.187zm-183.651-209.497c0-10.608 8.63-19.238 19.238-19.238h137.43c-5.097 2.61-9.966 4.412-15.24 4.227-7.839-.263-14.448 2.759-19.167 8.756-8.107 10.303-9.987 29.333-5.746 58.179 1.556 10.583 3.637 20.396 5.262 27.324-8.174 3.938-13.863 12.056-14.204 21.648-.243 6.881 2.251 13.394 7.025 18.34 3.367 3.489 7.551 5.872 12.135 6.975 1.038 19.976 11.623 37.862 30.771 51.896 7.001 5.131 14.407 9.146 20.802 12.013l-20.727 8.026c-2.5.968-4.506 2.899-5.569 5.36-.153.355-.283.718-.393 1.085h-24.17c-20.223 0-36.676 16.453-36.676 36.676v60.854h-90.771zm446.242 359.379c0 11.352-9.234 20.586-20.586 20.586h-430.828c-11.351 0-20.586-9.234-20.586-20.586v-37.259h472z"/></g></g></g></symbol><symbol id="open-book" viewBox="0 0 504.519 504.519"><title>open-book</title><g><path d="m474.206 148.102c-.066-.002-.13-.01-.196-.01h-25.653-204.752v346.827c1.403 0 2.67-.774 3.38-1.984 4.281-7.295 12.202-12.193 21.271-12.193h205.754c.066 0 .13-.008.196-.01z" fill="#0078c8"/><g><path d="m474.01 148.092h-25.653-16.761c3.148 0 5.701 2.552 5.701 5.701v321.248c0 3.149-2.552 5.701-5.701 5.701h42.414c3.148 0 5.701-2.552 5.701-5.701 0-6.168 0-314.642 0-321.248 0-3.148-2.553-5.701-5.701-5.701z" fill="#0268b4"/></g><path d="m439.792 129.239h-181.935c-7.871 0-14.252 6.381-14.252 14.252v306.636h2.311c2.543-3.902 6.937-6.486 11.941-6.486h181.935z" fill="#d5e3f4"/><path d="m243.605 494.919v-28.928-15.864-302.035h-204.751-25.653c-3.148 0-5.701 2.552-5.701 5.701v147.175 37.606 136.466c0 3.148 2.552 5.701 5.701 5.701h205.753c9.069 0 16.99 4.899 21.271 12.193.71 1.211 1.977 1.985 3.38 1.985z" fill="#0268b4"/><path d="m396.122 413.971h-100.283c-4.276 0-7.742-3.466-7.742-7.742v-75.212c0-4.276 3.466-7.742 7.742-7.742h100.283c4.276 0 7.742 3.466 7.742 7.742v75.212c.001 4.276-3.466 7.742-7.742 7.742z" fill="#f47c7c"/><path d="m241.294 450.127h2.311v-306.636c0-7.871-6.381-14.252-14.252-14.252h-183.848c-3.673 0-6.651 2.978-6.651 6.651v301.1c0 3.673 2.978 6.651 6.651 6.651h183.849c5.004 0 9.398 2.585 11.94 6.486z" fill="#b3dafe"/><path d="m155.584 292.12v55.303l32.845-23.13c3.128-2.203 3.128-6.84 0-9.043z" fill="#e5eef9"/><g><path d="m441.706 129.239h-33.931c3.673 0 6.651 2.978 6.651 6.651v301.1c0 3.673-2.978 6.651-6.651 6.651h33.931c3.673 0 6.651-2.978 6.651-6.651v-301.1c0-3.673-2.978-6.651-6.651-6.651z" fill="#b3dafe"/></g><path d="m360.063 206.83h55.724c3.631-10.809 9.648-20.659 17.599-28.832 11.698-12.025 18.668-28.671 17.892-46.947-1.39-32.745-28.111-59.35-60.862-60.604-36.156-1.384-65.902 27.516-65.902 63.363 0 17.191 6.846 32.775 17.957 44.193 7.949 8.169 13.961 18.018 17.591 28.823z" fill="#fdb97e"/><path d="m360.063 206.83h55.724v22.819c0 15.388-12.474 27.862-27.862 27.862-15.388 0-27.862-12.474-27.862-27.862z" fill="#678d98"/><path d="m451.278 131.052c-1.39-32.745-28.111-59.35-60.862-60.604-5.748-.22-11.331.331-16.661 1.548 27.243 6.258 48.026 30.282 49.247 59.056.776 18.276-6.194 34.921-17.892 46.947-7.951 8.173-13.968 18.023-17.599 28.832h28.276c3.631-10.809 9.648-20.658 17.599-28.832 11.698-12.026 18.668-28.671 17.892-46.947z" fill="#fea95c"/><path d="m387.511 206.83v22.819c0 10.225-5.512 19.159-13.724 24.006 4.145 2.447 8.976 3.856 14.138 3.856 15.388 0 27.862-12.474 27.862-27.862v-22.819z" fill="#537983"/><path d="m155.584 292.12v55.303l32.845-23.13c3.128-2.203 3.128-6.84 0-9.043z" fill="#f9c6c6"/><path d="m188.428 324.293c3.128-2.203 3.128-6.84 0-9.043l-32.845-23.13v25.448l21.197 14.927z" fill="#f9b1b1"/><path d="m16.349 292.079c-4.887 0-8.849 3.962-8.849 8.849v25.491c0-4.887 3.962-8.849 8.849-8.849h35.265v-25.491z" fill="#e94444"/><path d="m51.614 297.776h103.97v49.648h-103.97z" fill="#d83131"/><path d="m7.5 306.624v31.951c0 4.887 3.962 8.849 8.849 8.849h35.265v-49.648h-35.265c-4.887-.001-8.849 3.961-8.849 8.848z" fill="#f47c7c"/><path d="m51.614 292.12h103.97v25.448h-103.97z" fill="#ca2c2c"/><path d="m7.5 300.969v25.45c0-4.887 3.962-8.849 8.849-8.849h35.265v-25.45h-35.265c-4.887 0-8.849 3.962-8.849 8.849z" fill="#ee6161"/></g><g><path d="m286.438 295.491h119.086c4.581 0 8.295-3.714 8.295-8.296 0-4.581-3.714-8.295-8.295-8.295h-119.086c-4.581 0-8.295 3.714-8.295 8.295-.001 4.582 3.713 8.296 8.295 8.296z"/><path d="m396.123 315.774h-100.284c-8.405 0-15.242 6.838-15.242 15.243v75.212c0 8.405 6.837 15.242 15.242 15.242h100.283c8.405 0 15.242-6.837 15.242-15.242v-75.212c.001-8.405-6.837-15.243-15.241-15.243zm.242 90.455c0 .134-.109.242-.242.242h-100.284c-.133 0-.242-.108-.242-.242v-75.212c0-.134.109-.243.242-.243h100.283c.133 0 .242.109.242.243v75.212z"/><path d="m387.926 39.228c4.142 0 7.5-3.358 7.5-7.5v-22.099c0-4.142-3.358-7.5-7.5-7.5s-7.5 3.358-7.5 7.5v22.098c0 4.143 3.358 7.501 7.5 7.501z"/><path d="m330.765 51.742c1.464 1.464 3.384 2.197 5.303 2.197s3.839-.732 5.303-2.197c2.929-2.929 2.929-7.678 0-10.606l-15.625-15.626c-2.929-2.929-7.678-2.929-10.606 0-2.929 2.929-2.929 7.678 0 10.606z"/><path d="m439.784 53.939c1.919 0 3.839-.732 5.303-2.197l15.625-15.625c2.929-2.929 2.929-7.678 0-10.606-2.929-2.929-7.678-2.929-10.606 0l-15.626 15.625c-2.929 2.929-2.929 7.678 0 10.606 1.465 1.465 3.384 2.197 5.304 2.197z"/><path d="m497.019 82.627h-22.098c-4.142 0-7.5 3.358-7.5 7.5s3.358 7.5 7.5 7.5h22.098c4.142 0 7.5-3.358 7.5-7.5s-3.358-7.5-7.5-7.5z"/><path d="m278.832 97.627h22.098c4.142 0 7.5-3.358 7.5-7.5s-3.358-7.5-7.5-7.5h-22.098c-4.142 0-7.5 3.358-7.5 7.5s3.358 7.5 7.5 7.5z"/><path d="m81.687 182.62h119.086c4.581 0 8.295-3.714 8.295-8.295 0-4.582-3.714-8.296-8.295-8.296h-119.086c-4.581 0-8.295 3.714-8.295 8.296-.001 4.581 3.713 8.295 8.295 8.295z"/><path d="m81.687 220.244h119.086c4.581 0 8.295-3.714 8.295-8.295 0-4.581-3.714-8.295-8.295-8.295h-119.086c-4.581 0-8.295 3.714-8.295 8.295-.001 4.581 3.713 8.295 8.295 8.295z"/><path d="m209.068 249.572c0-4.582-3.714-8.296-8.295-8.296h-119.086c-4.581 0-8.295 3.714-8.295 8.296 0 4.581 3.714 8.295 8.295 8.295h119.086c4.581 0 8.295-3.714 8.295-8.295z"/><path d="m81.687 398.955h119.086c4.581 0 8.295-3.714 8.295-8.296 0-4.581-3.714-8.295-8.295-8.295h-119.086c-4.581 0-8.295 3.714-8.295 8.295-.001 4.582 3.713 8.296 8.295 8.296z"/><path d="m467.74 140.592h-9.226c.212-2.241.322-4.502.322-6.779 0-13.78-4.006-27.008-11.308-38.301-2.249-3.479-6.892-4.474-10.37-2.227-3.479 2.249-4.476 6.892-2.227 10.37 9.743 15.071 11.11 34.198 6.276 47.088-3.099 12.397-14.656 23.554-15.654 24.674-.136.152-.273.303-.407.456-6.155 7.013-11.096 15.04-14.562 23.457h-45.322c-3.898-9.474-9.804-18.732-17.417-26.556-10.209-10.492-15.832-24.329-15.832-38.962 0-30.66 24.95-55.912 55.911-55.912.732 0 1.467.014 2.204.042 7.653.292 15.037 2.138 21.947 5.486 3.729 1.805 8.214.248 10.02-3.48s.247-8.214-3.48-10.02c-8.786-4.256-18.178-6.603-27.915-6.975-36.187-1.367-66.733 24.544-72.638 58.786h-60.206c-5.448 0-10.431 2.018-14.251 5.34-3.821-3.322-8.803-5.34-14.252-5.34h-183.848c-7.803 0-14.151 6.348-14.151 14.151v4.702h-11.884c-10.736 0-19.47 8.734-19.47 19.47v201.964c0 4.142 3.358 7.5 7.5 7.5s7.5-3.358 7.5-7.5v-7.159c.445.037.895.055 1.349.055h15.005c0 88.661-.127 82.892.288 84.915 1.322 6.442 7.035 11.303 13.863 11.303h183.849c4.209 0 5.427 3.133 6.752 4.402v22.681c-5.065-3.196-11.001-4.982-17.151-4.982h-199.485c-2.465 0-4.47-2.005-4.47-4.47v-71.745c0-4.142-3.358-7.5-7.5-7.5s-7.5 3.358-7.5 7.5v71.745c0 10.736 8.734 19.47 19.47 19.47h199.484c6.058 0 11.729 3.253 14.802 8.488 4.477 7.634 15.322 7.459 19.698.001 3.073-5.236 8.745-8.489 14.803-8.489h199.483c10.736 0 19.47-8.734 19.47-19.47v-308.708c0-10.736-8.734-19.471-19.47-19.471zm-79.815 109.419c-11.228 0-20.362-9.134-20.362-20.362v-15.319h40.724v15.319c0 11.228-9.135 20.362-20.362 20.362zm-130.068-113.272h59.217c.412 10.175 3.112 20.379 7.674 29.29h-38.31c-4.581 0-8.296 3.714-8.296 8.295 0 4.582 3.714 8.296 8.296 8.296h50.087c6.293 6.62 10.524 12.519 14.252 21.033h-64.339c-4.581 0-8.296 3.714-8.296 8.296 0 4.581 3.714 8.295 8.296 8.295h66.125v9.406c0 4.073.7 7.983 1.973 11.626h-68.098c-4.581 0-8.296 3.714-8.296 8.296 0 4.581 3.714 8.295 8.296 8.295l79.847-.28c5.986 4.647 13.493 7.424 21.64 7.424 19.499 0 35.362-15.863 35.362-35.362v-21.492c5.539-15.613 14.434-23.66 17.57-27.179v255.163h-183c-.014 0-.028.002-.042.002-2.308.004-4.83.452-6.709 1.068v-293.719c-.001-3.723 3.028-6.753 6.751-6.753zm-242.857 23.324c0-2.465 2.005-4.47 4.47-4.47h11.884v129.027h-15.005c-.454 0-.904.019-1.349.055zm1.349 179.86c-.744 0-1.349-.605-1.349-1.349v-37.606c0-.744.605-1.349 1.349-1.349h22.505 5.26v40.303h-5.26-22.505zm35.265 15h103.97c1.428 0 2.994-.45 4.278-1.344.013-.009.027-.015.04-.024l32.845-23.13c3.461-2.438 5.528-6.42 5.528-10.654s-2.067-8.216-5.528-10.653l-32.845-23.13c-.014-.01-.03-.017-.044-.027-1.1-.764-2.456-1.257-3.936-1.324-.113-.005-.224-.017-.339-.017-12.899 0-97.918 0-109.229 0v-136.528-11.353h183c3.723 0 6.752 3.029 6.752 6.752v293.719c-1.938-.63-4.447-1.063-6.708-1.068-.015 0-.029-.002-.044-.002h-183v-81.217zm96.469-15h-88.97v-40.303h88.97zm33.74-20.151-18.739 13.197v-26.394zm290.387 149c0 2.465-2.005 4.47-4.47 4.47h-199.483c-6.15 0-12.086 1.787-17.151 4.982v-22.681c1.364-1.309 2.501-4.401 6.751-4.401h183.849c7.802 0 14.151-6.348 14.151-14.151v-281.399h11.884c2.465 0 4.47 2.005 4.47 4.47v308.71z"/></g></symbol><symbol id="bitcoin" viewBox="0 0 512 512"><title>bitcoin</title><path d="m256 0c-140.7 0-256 115.3-256 256s115.3 256 256 256 256-115.3 256-256-115.3-256-256-256z" fill="#64e1dc"/><path d="m512 256c0 140.7-115.3 256-256 256v-512c140.7 0 256 115.3 256 256z" fill="#00c8c8"/><circle cx="256" cy="256" fill="#00c8c8" r="226"/><path d="m482 256c0 124.2-101.8 226-226 226v-452c124.2 0 226 101.8 226 226z" fill="#1cadb5"/><g fill="#64e1dc"><path d="m256 0c-75.601 0-135 112.899-135 256 0 143.099 59.399 256 135 256s135-112.901 135-256c0-143.101-59.399-256-135-256zm0 482c-57.001 0-105-103.9-105-226s47.999-226 105-226 105 103.9 105 226-47.999 226-105 226z"/><path d="m67.5 91h377v30h-377z"/><path d="m67.5 391h377v30h-377z"/><path d="m15 241h121v30h-121z"/></g><path d="m376 241h121v30h-121z" fill="#00c8c8"/><g><path d="m331 226c0-19.501-12.599-36-30-42.299v-32.701h-30v30h-30v-30h-30v30h-30v30h30v90h-30v30h30v30h30v-30h30v30h30v-32.701c17.401-6.299 30-22.798 30-42.299 0-11.7-4.501-21.899-11.7-30 7.199-8.101 11.7-18.3 11.7-30zm-45 75h-45v-30h45c8.401 0 15 6.599 15 15s-6.599 15-15 15zm0-60h-45v-30h45c8.401 0 15 6.599 15 15s-6.599 15-15 15z" fill="#fdbf00"/><path d="m319.3 256c7.2 8.101 11.7 18.3 11.7 30 0 19.501-12.599 36-30 42.299v32.701h-30v-30h-15v-30h30c8.401 0 15-6.599 15-15s-6.599-15-15-15h-30v-30h30c8.401 0 15-6.599 15-15s-6.599-15-15-15h-30v-30h15v-30h30v32.701c17.401 6.299 30 22.798 30 42.299 0 11.7-4.501 21.899-11.7 30z" fill="#ff9100"/></g><path d="m391 256c0 143.099-59.399 256-135 256v-30c57.001 0 105-103.9 105-226s-47.999-226-105-226v-30c75.601 0 135 112.899 135 256z" fill="#00c8c8"/><path d="m256 91h188.5v30h-188.5z" fill="#00c8c8"/><path d="m256 391h188.5v30h-188.5z" fill="#00c8c8"/></symbol><symbol id="laptop-1" viewBox="0 0 512 512"><title>laptop-1</title><path d="m10 387.756v47.259c0 16.892 13.694 30.586 30.586 30.586h430.828c16.892 0 30.586-13.694 30.586-30.586v-47.259z" fill="#8481e2"/><g><path d="m476.242 387.756h-440.484v-312.119c0-16.148 13.09-29.238 29.238-29.238h382.008c16.148 0 29.238 13.09 29.238 29.238z" fill="#e5ecec"/></g><g><path d="m369.93 436.68c-4.177 0-8.009-2.71-9.415-6.636-1.41-3.936-.156-8.439 3.071-11.093 3.272-2.691 8.021-3.002 11.62-.767 3.56 2.211 5.404 6.589 4.478 10.679-1.019 4.502-5.124 7.817-9.754 7.817z"/></g><g><path d="m145.777 381.102v-224.48c0-60.874 49.348-110.223 110.223-110.223 60.874 0 110.223 49.348 110.223 110.223v224.48" fill="#8481e2"/><path d="m330.283 175.185h-1.398l-.003-26.742h-23.511l-20.251-29.688-21.196 29.688h-81.303l-.003 26.742h-.902c-7.88 0-14.591 6.128-14.871 14.003-.294 8.268 6.321 15.063 14.523 15.063h2.568l1.266 5.809c0 41.567 49.964 59.215 56.105 60.094l-7.293 27.682h43.472l-7.293-27.683c6.14-.879 56.107-18.327 56.107-60.093l1.266-5.809h3.064c8.202 0 14.817-6.795 14.523-15.063-.279-7.875-6.99-14.003-14.87-14.003z" fill="#ffcbbe"/><path d="m145.777 387.756v-63.062c0-14.834 12.025-26.859 26.859-26.859h166.725c14.835 0 26.862 12.026 26.862 26.862v63.059z" fill="#f5737f"/><g><g><g><path d="m220.773 208.189c-5.523 0-10-4.478-10-10v-12.053c0-5.522 4.477-10 10-10s10 4.478 10 10v12.053c0 5.522-4.477 10-10 10z"/></g></g><g><g><path d="m291.227 208.189c-5.522 0-10-4.478-10-10v-12.053c0-5.522 4.478-10 10-10s10 4.478 10 10v12.053c0 5.522-4.478 10-10 10z"/></g></g></g><g><path d="m256.017 248.65c-7.763 0-15.002-4.177-18.89-10.9-2.765-4.781-1.131-10.898 3.649-13.663 4.78-2.766 10.898-1.131 13.663 3.649.124.215.604.914 1.578.914.973 0 1.454-.7 1.578-.915 2.766-4.779 8.883-6.415 13.664-3.648 4.78 2.767 6.414 8.884 3.648 13.664-3.889 6.723-11.128 10.899-18.89 10.899z"/></g><g><g><path d="m256 346.32-36.006-48.484h72.012z" fill="#e5ecec"/></g><path d="m502 377.757h-15.758v-302.12c0-21.636-17.603-39.238-39.238-39.238h-382.008c-21.636 0-39.238 17.603-39.238 39.238v302.12h-15.758c-5.523 0-10 4.478-10 10v47.259c0 22.379 18.207 40.586 40.586 40.586h430.828c22.379 0 40.586-18.207 40.586-40.586v-47.259c0-5.523-4.478-10-10-10zm-54.996-321.359c10.608 0 19.238 8.63 19.238 19.238v302.12h-90.02v-221.135c0-41.796-21.443-78.672-53.902-100.223zm-90.781 235.527c-5.056-2.612-10.789-4.089-16.861-4.089h-54.167l-2.912-11.056c6.969-2.764 15.885-7.211 24.17-13.268 18.4-13.451 28.627-30.638 29.746-49.89 4.569-1.052 8.74-3.402 12.086-6.869 4.665-4.834 7.102-11.198 6.864-17.922-.366-10.282-7.016-18.837-16.264-22.16l-.002-18.23c-.001-5.522-4.478-9.999-10-9.999h-18.228l-17.274-25.322c-1.841-2.7-4.886-4.33-8.153-4.364-.036-.001-.072-.001-.107-.001-3.228 0-6.261 1.559-8.139 4.189l-18.205 25.498h-76.156c-5.523 0-10 4.477-10 9.999l-.003 18.413c-8.99 3.448-15.408 11.88-15.767 21.977-.239 6.724 2.198 13.088 6.863 17.922 3.223 3.34 7.212 5.643 11.585 6.748 1.088 19.22 11.314 36.423 29.741 49.929 8.31 6.09 17.223 10.559 24.185 13.334l-2.917 11.071h-53.673c-6.071 0-11.804 1.476-16.859 4.087v-135.301c0-55.263 44.96-100.223 100.223-100.223s100.223 44.96 100.223 100.223v135.304zm-106.58-27.296c-1.562-2.355-4.046-3.939-6.838-4.362-2.601-.504-15.113-4.879-26.5-13.381-14.003-10.455-21.103-22.846-21.103-36.826 0-.716-.077-1.43-.229-2.13l-1.266-5.809c-1.001-4.594-5.068-7.87-9.771-7.87h-2.568c-1.674 0-2.762-.868-3.262-1.386-.499-.517-1.327-1.637-1.267-3.322.085-2.403 2.273-4.358 4.877-4.358h.901c5.522 0 9.999-4.477 10-9.999l.002-16.742h71.305c3.23 0 6.262-1.561 8.139-4.189l12.87-18.026 12.178 17.851c1.862 2.732 4.955 4.365 8.261 4.365h13.512l.002 16.742c.001 5.522 4.478 9.999 10 9.999h1.397c2.603 0 4.792 1.955 4.877 4.358.061 1.686-.768 2.805-1.267 3.322-.5.518-1.588 1.386-3.262 1.386h-3.064c-4.702 0-8.77 3.276-9.771 7.871l-1.266 5.809c-.152.699-.23 1.413-.23 2.129 0 14.063-7.103 26.48-21.111 36.908-11.359 8.455-23.884 12.799-26.485 13.297-2.794.421-5.281 2.005-6.844 4.362-1.577 2.378-2.063 5.315-1.336 8.073l3.986 15.136h-17.521l3.987-15.134c.73-2.76.244-5.697-1.333-8.074zm22.481 43.207-16.124 21.712-16.124-21.712zm-116.347 16.858c0-9.296 7.563-16.858 16.859-16.858h42.328l33.008 44.446c1.887 2.541 4.864 4.038 8.028 4.038s6.142-1.498 8.028-4.038l33.007-44.446h42.326c9.297 0 16.861 7.564 16.861 16.861v53.06h-200.445zm-110.019-249.057c0-10.608 8.63-19.238 19.238-19.238h124.683c-32.458 21.55-53.902 58.427-53.902 100.223v221.136h-90.02v-302.121zm446.242 359.379c0 11.352-9.234 20.586-20.586 20.586h-430.828c-10.791 0-19.663-8.347-20.513-18.923h304.867c5.522 0 10-4.478 10-10s-4.478-10-10-10h-304.94v-18.922h472z"/></g></g></symbol></svg>